<svg xmlns="http://www.w3.org/2000/svg" xmlns:xlink="http://www.w3.org/1999/xlink" width="35.093" height="40" viewBox="0 0 35.093 40"><defs><style>.a{fill:url(#a);}</style><linearGradient id="a" x1="0.878" x2="0.219" y2="2.063" gradientUnits="objectBoundingBox"><stop offset="0" stop-color="#ae32f6"/><stop offset="0.555" stop-color="#8838fc"/><stop offset="1" stop-color="#8638fc"/></linearGradient></defs><g transform="translate(2.499 -67.918)"><g transform="translate(-2.499 67.918)"><path class="a" d="M19.334,0C13.706,0,8.5,2.609,4.27,6.448a7.316,7.316,0,0,0-1.808,8.017l2.584,6.627a15.68,15.68,0,0,1,14.287-9.839A15.719,15.719,0,0,1,33.8,21.511l2.753-7.062a7.312,7.312,0,0,0-1.78-7.991A22.932,22.932,0,0,0,19.334,0Zm3.114,7.538H20.635V9.571H18.1V7.538H16.2V4.826h1.9V2.791h2.532V4.826h1.813Z" transform="translate(-1.96)"/><path class="a" d="M25.171,11.43s0,0,0,.005-4.438,7.586-12.047,10.336a.689.689,0,0,1-.823-.307.841.841,0,0,1,.047-.945,13.708,13.708,0,0,0,.975-1.415,1.15,1.15,0,0,0-.031-1.209.938.938,0,0,0-1.048-.4,10.337,10.337,0,0,0-7.373,7.939c.594,7.543,6.4,13.466,13.471,13.466,7.471,0,13.526-6.6,13.526-14.746A15.023,15.023,0,0,0,25.171,11.43Z" transform="translate(-0.975 1.101)"/></g></g></svg>