<svg xmlns="http://www.w3.org/2000/svg" xmlns:xlink="http://www.w3.org/1999/xlink" width="40.172" height="40" viewBox="0 0 40.172 40"><defs><style>.a{fill:url(#a);}</style><linearGradient id="a" x1="0.897" x2="0.398" y2="1.118" gradientUnits="objectBoundingBox"><stop offset="0" stop-color="#ae32f6"/><stop offset="1" stop-color="#8638fc"/></linearGradient></defs><path class="a" d="M39.368,16.313a1.752,1.752,0,0,0,.526-2.421L33.922,4.606A1.751,1.751,0,0,0,31.5,4.079L27.333,6.761V1.819A1.751,1.751,0,0,0,25.581.068H14.594a1.75,1.75,0,0,0-1.751,1.751V6.762L8.671,4.079a1.751,1.751,0,0,0-2.42.526L.277,13.892A1.754,1.754,0,0,0,.8,16.313l5.839,3.755L.806,23.82a1.755,1.755,0,0,0-.528,2.422l5.974,9.287a1.75,1.75,0,0,0,2.42.527l4.172-2.682v4.941a1.751,1.751,0,0,0,1.751,1.753H25.581a1.752,1.752,0,0,0,1.752-1.753V33.374L31.5,36.056a1.751,1.751,0,0,0,2.421-.527l5.972-9.288a1.752,1.752,0,0,0-.526-2.421L33.53,20.067ZM17.525,32.181a1.818,1.818,0,0,1-.633-3.523c.5-.184.958-.364,1.385-.537v-6.8c-2.35-1.378-4.393-2.783-4.848-4.835-.716-3.2.333-5.065,1.338-6.059A5.9,5.9,0,0,1,16.636,9.2a8.79,8.79,0,0,1,1.642-.5V7.34a1.811,1.811,0,1,1,3.622,0V8.487a19.371,19.371,0,0,1,2.32.277c.333.061.566.111.675.137a1.819,1.819,0,0,1-.3,3.588,20.581,20.581,0,0,0-2.691-.371,7.769,7.769,0,0,0-3.621.435,6.359,6.359,0,0,0-1,.644,2.077,2.077,0,0,0-.3,2.5,4.184,4.184,0,0,0,1.3,1.316v-3.76l3.621.727V26.357c1.456-.9,1.562-1.4,1.565-1.4-.022-.117-1.339-5.6-1.339-5.6,2.7,1.58,5.176,3.294,4.96,5.907-.144,1.776-1.508,3.309-4.407,4.846l-.779.343-3.621,1.594v-.015l-.118.044A1.841,1.841,0,0,1,17.525,32.181ZM21.9,32.8a1.811,1.811,0,1,1-3.622,0v-.758l3.621-.706V32.8Z" transform="translate(0 -0.068)"/></svg>